<mxfile host="app.diagrams.net" modified="2023-10-15T00:21:30.042Z" agent="Mozilla/5.0 (Macintosh; Intel Mac OS X 10_15_7) AppleWebKit/537.36 (KHTML, like Gecko) Chrome/117.0.0.0 Safari/537.36" version="22.0.4" etag="zG6li33GLBaCM26TMusS" type="github">
  <diagram name="페이지-1" id="apINJ2GAxkDoiY32rhBb">
    <mxGraphModel>
      <root>
        <mxCell id="0" />
        <mxCell id="1" parent="0" />
      </root>
    </mxGraphModel>
  </diagram>
</mxfile>
